<?xml version="1.0" standalone="no"?><svg xmlns:xlink="http://www.w3.org/1999/xlink" xmlns="http://www.w3.org/2000/svg" viewBox="0 0 1000 300" preserveAspectRatio="xMaxYMax slice"><g transform="scale(0.8880994671403197)"><rect x="0" y="0" width="1126" height="450.4" fill="#ffffff"/><rect x="0" y="0" width="112.6" height="112.6" fill="#ffffff"/><rect x="0" y="0" width="56.3" height="56.3" fill="#a2cff5"/><polygon points="0,0 56.3,0 56.3,56.3" fill="#f3f7fd"/><rect x="56.3" y="0" width="56.3" height="56.3" fill="#ebf7fc"/><polygon points="56.3,0 112.6,56.3 56.3,56.3" fill="#cfecf8"/><rect x="0" y="56.3" width="56.3" height="56.3" fill="#dfe9f8"/><polygon points="56.3,56.3 56.3,112.6 0,112.6" fill="#acdef4"/><rect x="56.3" y="56.3" width="56.3" height="56.3" fill="#dde7f8"/><polygon points="56.3,56.3 112.6,56.3 112.6,112.6" fill="#cde6fa"/><rect x="112.6" y="0" width="112.6" height="112.6" fill="#ffffff"/><rect x="112.6" y="0" width="56.3" height="56.3" fill="#e5edfb"/><polygon points="112.6,0 168.89999999999998,0 112.6,56.3" fill="#ebf5fd"/><rect x="168.9" y="0" width="56.3" height="56.3" fill="#a3dbf2"/><polygon points="225.2,0 225.2,56.3 168.9,56.3" fill="#f1f8fd"/><rect x="112.6" y="56.3" width="56.3" height="56.3" fill="#aed1f3"/><polygon points="112.6,56.3 168.89999999999998,56.3 168.89999999999998,112.6" fill="#cce5fa"/><rect x="168.9" y="56.3" width="56.3" height="56.3" fill="#eff9fd"/><polygon points="168.9,56.3 225.2,112.6 168.9,112.6" fill="#e2ebf9"/><rect x="225.2" y="0" width="112.6" height="112.6" fill="#b9dcf7"/><polygon points="225.2,0 337.79999999999995,0 225.2,112.6" fill="#e1eaf9"/><rect x="337.79999999999995" y="0" width="112.6" height="112.6" fill="#ffffff"/><rect x="337.8" y="0" width="56.3" height="56.3" fill="#fcfeff"/><polygon points="337.8,0 394.1,0 394.1,56.3" fill="#f3fafd"/><rect x="394.1" y="0" width="56.3" height="56.3" fill="#d4e7f9"/><polygon points="394.1,0 450.40000000000003,0 394.1,56.3" fill="#c2e7f7"/><rect x="337.8" y="56.3" width="56.3" height="56.3" fill="#c7e9f7"/><polygon points="337.8,56.3 394.1,112.6 337.8,112.6" fill="#e9effa"/><rect x="394.1" y="56.3" width="56.3" height="56.3" fill="#caeaf8"/><polygon points="450.40000000000003,56.3 450.40000000000003,112.6 394.1,112.6" fill="#f6f9fd"/><rect x="450.4" y="0" width="112.6" height="112.6" fill="#e9f0fc"/><polygon points="450.4,0 563,0 450.4,112.6" fill="#a3dbf2"/><rect x="563" y="0" width="112.6" height="112.6" fill="#ffffff"/><rect x="563" y="0" width="56.3" height="56.3" fill="#bbdcf8"/><polygon points="619.3,0 619.3,56.3 563,56.3" fill="#ceecf8"/><rect x="619.3" y="0" width="56.3" height="56.3" fill="#9ecdf5"/><polygon points="675.5999999999999,0 675.5999999999999,56.3 619.3,56.3" fill="#b1e0f4"/><rect x="563" y="56.3" width="56.3" height="56.3" fill="#c6dff7"/><polygon points="563,56.3 619.3,56.3 619.3,112.6" fill="#e0f3fb"/><rect x="619.3" y="56.3" width="56.3" height="56.3" fill="#f1f5fd"/><polygon points="619.3,56.3 675.5999999999999,56.3 675.5999999999999,112.6" fill="#fefeff"/><rect x="675.5999999999999" y="0" width="112.6" height="112.6" fill="#ffffff"/><rect x="675.6" y="0" width="56.3" height="56.3" fill="#dbe6f7"/><polygon points="675.6,0 731.9,0 731.9,56.3" fill="#e0effc"/><rect x="731.9" y="0" width="56.3" height="56.3" fill="#acd5f6"/><polygon points="731.9,0 788.1999999999999,0 788.1999999999999,56.3" fill="#e0eafb"/><rect x="675.6" y="56.3" width="56.3" height="56.3" fill="#a2daf2"/><polygon points="675.6,56.3 731.9,112.6 675.6,112.6" fill="#fdfdfe"/><rect x="731.9" y="56.3" width="56.3" height="56.3" fill="#9cccf4"/><polygon points="731.9,56.3 788.1999999999999,56.3 731.9,112.6" fill="#cfecf8"/><rect x="788.2" y="0" width="112.6" height="112.6" fill="#c3ddf6"/><polygon points="900.8000000000001,0 900.8000000000001,112.6 788.2,112.6" fill="#cee3f8"/><rect x="900.8" y="0" width="112.6" height="112.6" fill="#c8e0f7"/><polygon points="900.8,0 1013.4,0 1013.4,112.6" fill="#f1f7fd"/><rect x="1013.4" y="0" width="112.6" height="112.6" fill="#ffffff"/><rect x="1013.4" y="0" width="56.3" height="56.3" fill="#ceecf8"/><polygon points="1013.4,0 1069.7,56.3 1013.4,56.3" fill="#dee8f8"/><rect x="1069.7" y="0" width="56.3" height="56.3" fill="#f3f7fd"/><polygon points="1069.7,0 1126,0 1069.7,56.3" fill="#f8fafd"/><rect x="1013.4" y="56.3" width="56.3" height="56.3" fill="#a7d2f6"/><polygon points="1013.4,56.3 1069.7,56.3 1069.7,112.6" fill="#b2e1f4"/><rect x="1069.7" y="56.3" width="56.3" height="56.3" fill="#f7fafd"/><polygon points="1069.7,56.3 1126,112.6 1069.7,112.6" fill="#bcd9f5"/><rect x="0" y="112.6" width="112.6" height="112.6" fill="#dbe6fa"/><polygon points="0,112.6 112.6,225.2 0,225.2" fill="#f2f6fc"/><rect x="112.6" y="112.6" width="112.6" height="112.6" fill="#ffffff"/><rect x="112.6" y="112.6" width="56.3" height="56.3" fill="#e1eafb"/><polygon points="112.6,112.6 168.89999999999998,112.6 168.89999999999998,168.89999999999998" fill="#e5edfb"/><rect x="168.9" y="112.6" width="56.3" height="56.3" fill="#c4def6"/><polygon points="168.9,112.6 225.2,112.6 168.9,168.89999999999998" fill="#a9cff2"/><rect x="112.6" y="168.9" width="56.3" height="56.3" fill="#dee8f8"/><polygon points="112.6,168.9 168.89999999999998,168.9 112.6,225.2" fill="#e1eafb"/><rect x="168.9" y="168.9" width="56.3" height="56.3" fill="#eef5fc"/><polygon points="168.9,168.9 225.2,168.9 168.9,225.2" fill="#edf5fc"/><rect x="225.2" y="112.6" width="112.6" height="112.6" fill="#d8ebfb"/><polygon points="225.2,112.6 337.79999999999995,112.6 225.2,225.2" fill="#cce2f8"/><rect x="337.8" y="112.6" width="112.6" height="112.6" fill="#aedff4"/><polygon points="450.4,112.6 450.4,225.2 337.8,225.2" fill="#9fcef5"/><rect x="450.4" y="112.6" width="112.6" height="112.6" fill="#ffffff"/><rect x="450.4" y="112.6" width="56.3" height="56.3" fill="#f6f9fe"/><polygon points="450.4,112.6 506.7,112.6 506.7,168.89999999999998" fill="#c0d4f6"/><rect x="506.7" y="112.6" width="56.3" height="56.3" fill="#d6e3f9"/><polygon points="506.7,112.6 563,112.6 563,168.89999999999998" fill="#e7eefa"/><rect x="450.4" y="168.9" width="56.3" height="56.3" fill="#c9daf7"/><polygon points="450.4,168.9 506.7,168.9 450.4,225.2" fill="#cde6fa"/><rect x="506.7" y="168.9" width="56.3" height="56.3" fill="#fefeff"/><polygon points="506.7,168.9 563,168.9 506.7,225.2" fill="#f8fafd"/><rect x="563" y="112.6" width="112.6" height="112.6" fill="#d3e6f9"/><polygon points="563,112.6 675.6,112.6 563,225.2" fill="#dff3fb"/><rect x="675.5999999999999" y="112.6" width="112.6" height="112.6" fill="#ffffff"/><rect x="675.6" y="112.6" width="56.3" height="56.3" fill="#a8ddf3"/><polygon points="675.6,112.6 731.9,168.89999999999998 675.6,168.89999999999998" fill="#b6e2f5"/><rect x="731.9" y="112.6" width="56.3" height="56.3" fill="#a9cff2"/><polygon points="788.1999999999999,112.6 788.1999999999999,168.89999999999998 731.9,168.89999999999998" fill="#d0e4f8"/><rect x="675.6" y="168.9" width="56.3" height="56.3" fill="#cee3f8"/><polygon points="731.9,168.9 731.9,225.2 675.6,225.2" fill="#ecf2fc"/><rect x="731.9" y="168.9" width="56.3" height="56.3" fill="#e7eefa"/><polygon points="731.9,168.9 788.1999999999999,168.9 788.1999999999999,225.2" fill="#c9e3f9"/><rect x="788.1999999999999" y="112.6" width="112.6" height="112.6" fill="#ffffff"/><rect x="788.2" y="112.6" width="56.3" height="56.3" fill="#dae6fa"/><polygon points="788.2,112.6 844.5,168.89999999999998 788.2,168.89999999999998" fill="#bcddf8"/><rect x="844.5" y="112.6" width="56.3" height="56.3" fill="#bcd1f5"/><polygon points="844.5,112.6 900.8,168.89999999999998 844.5,168.89999999999998" fill="#ceecf8"/><rect x="788.2" y="168.9" width="56.3" height="56.3" fill="#ccdcf8"/><polygon points="788.2,168.9 844.5,168.9 844.5,225.2" fill="#addff4"/><rect x="844.5" y="168.9" width="56.3" height="56.3" fill="#cbebf8"/><polygon points="844.5,168.9 900.8,168.9 900.8,225.2" fill="#dfedfa"/><rect x="900.8" y="112.6" width="112.6" height="112.6" fill="#c5def6"/><polygon points="900.8,112.6 1013.4,225.2 900.8,225.2" fill="#a7d2f5"/><rect x="1013.4" y="112.6" width="112.6" height="112.6" fill="#ffffff"/><rect x="1013.4" y="112.6" width="56.3" height="56.3" fill="#dff2fb"/><polygon points="1013.4,112.6 1069.7,112.6 1069.7,168.89999999999998" fill="#c1dcf6"/><rect x="1069.7" y="112.6" width="56.3" height="56.3" fill="#feffff"/><polygon points="1126,112.6 1126,168.89999999999998 1069.7,168.89999999999998" fill="#cfe4f8"/><rect x="1013.4" y="168.9" width="56.3" height="56.3" fill="#f1f5fd"/><polygon points="1013.4,168.9 1069.7,225.2 1013.4,225.2" fill="#f7fafe"/><rect x="1069.7" y="168.9" width="56.3" height="56.3" fill="#bcd1f5"/><polygon points="1069.7,168.9 1126,225.2 1069.7,225.2" fill="#c9e1f7"/><rect x="0" y="225.2" width="112.6" height="112.6" fill="#ffffff"/><rect x="0" y="225.2" width="56.3" height="56.3" fill="#afd2f3"/><polygon points="0,225.2 56.3,281.5 0,281.5" fill="#bdd2f6"/><rect x="56.3" y="225.2" width="56.3" height="56.3" fill="#f2f6fc"/><polygon points="56.3,225.2 112.6,281.5 56.3,281.5" fill="#b3d8f7"/><rect x="0" y="281.5" width="56.3" height="56.3" fill="#d1e8fa"/><polygon points="0,281.5 56.3,281.5 0,337.8" fill="#c2d6f6"/><rect x="56.3" y="281.5" width="56.3" height="56.3" fill="#d9ecfb"/><polygon points="56.3,281.5 112.6,281.5 112.6,337.8" fill="#fcfdff"/><rect x="112.6" y="225.2" width="112.6" height="112.6" fill="#ffffff"/><rect x="112.6" y="225.2" width="56.3" height="56.3" fill="#e1eaf9"/><polygon points="112.6,225.2 168.89999999999998,225.2 168.89999999999998,281.5" fill="#f2fafd"/><rect x="168.9" y="225.2" width="56.3" height="56.3" fill="#e0e9f8"/><polygon points="168.9,225.2 225.2,281.5 168.9,281.5" fill="#feffff"/><rect x="112.6" y="281.5" width="56.3" height="56.3" fill="#c2d5f6"/><polygon points="112.6,281.5 168.89999999999998,337.8 112.6,337.8" fill="#d4eef9"/><rect x="168.9" y="281.5" width="56.3" height="56.3" fill="#c1dff8"/><polygon points="168.9,281.5 225.2,281.5 168.9,337.8" fill="#c0dff8"/><rect x="225.2" y="225.2" width="112.6" height="112.6" fill="#e8effa"/><polygon points="225.2,225.2 337.79999999999995,225.2 337.79999999999995,337.79999999999995" fill="#c3ddf6"/><rect x="337.8" y="225.2" width="112.6" height="112.6" fill="#f2fafd"/><polygon points="337.8,225.2 450.4,337.79999999999995 337.8,337.79999999999995" fill="#f5f9fe"/><rect x="450.4" y="225.2" width="112.6" height="112.6" fill="#f6f9fe"/><polygon points="450.4,225.2 563,225.2 450.4,337.79999999999995" fill="#d7e4f9"/><rect x="563" y="225.2" width="112.6" height="112.6" fill="#ffffff"/><rect x="563" y="225.2" width="56.3" height="56.3" fill="#e5edfb"/><polygon points="563,225.2 619.3,281.5 563,281.5" fill="#b9e3f5"/><rect x="619.3" y="225.2" width="56.3" height="56.3" fill="#fafcfe"/><polygon points="675.5999999999999,225.2 675.5999999999999,281.5 619.3,281.5" fill="#f5f8fd"/><rect x="563" y="281.5" width="56.3" height="56.3" fill="#e7effc"/><polygon points="563,281.5 619.3,337.8 563,337.8" fill="#c4e8f7"/><rect x="619.3" y="281.5" width="56.3" height="56.3" fill="#f3f7fc"/><polygon points="675.5999999999999,281.5 675.5999999999999,337.8 619.3,337.8" fill="#c7e0f7"/><rect x="675.6" y="225.2" width="112.6" height="112.6" fill="#bedef8"/><polygon points="675.6,225.2 788.2,225.2 788.2,337.79999999999995" fill="#eef8fd"/><rect x="788.2" y="225.2" width="112.6" height="112.6" fill="#eaf1fc"/><polygon points="788.2,225.2 900.8000000000001,337.79999999999995 788.2,337.79999999999995" fill="#eff3fb"/><rect x="900.8" y="225.2" width="112.6" height="112.6" fill="#ffffff"/><rect x="900.8" y="225.2" width="56.3" height="56.3" fill="#ddf2fa"/><polygon points="900.8,225.2 957.0999999999999,281.5 900.8,281.5" fill="#bad0f5"/><rect x="957.1" y="225.2" width="56.3" height="56.3" fill="#b5e2f5"/><polygon points="957.1,225.2 1013.4,225.2 1013.4,281.5" fill="#e0f3fb"/><rect x="900.8" y="281.5" width="56.3" height="56.3" fill="#e4f4fb"/><polygon points="900.8,281.5 957.0999999999999,281.5 900.8,337.8" fill="#abdef3"/><rect x="957.1" y="281.5" width="56.3" height="56.3" fill="#e2f0fc"/><polygon points="957.1,281.5 1013.4,281.5 957.1,337.8" fill="#bad8f5"/><rect x="1013.4" y="225.2" width="112.6" height="112.6" fill="#ffffff"/><rect x="1013.4" y="225.2" width="56.3" height="56.3" fill="#f4f7fd"/><polygon points="1013.4,225.2 1069.7,281.5 1013.4,281.5" fill="#ecf2fc"/><rect x="1069.7" y="225.2" width="56.3" height="56.3" fill="#f4f7fd"/><polygon points="1126,225.2 1126,281.5 1069.7,281.5" fill="#eff3fb"/><rect x="1013.4" y="281.5" width="56.3" height="56.3" fill="#bbd9f5"/><polygon points="1013.4,281.5 1069.7,281.5 1069.7,337.8" fill="#eaf0fc"/><rect x="1069.7" y="281.5" width="56.3" height="56.3" fill="#f3f7fd"/><polygon points="1069.7,281.5 1126,281.5 1126,337.8" fill="#eef5fc"/><rect x="0" y="337.8" width="112.6" height="112.6" fill="#cee6fa"/><polygon points="0,337.8 112.6,337.8 0,450.4" fill="#b1e0f4"/><rect x="112.6" y="337.79999999999995" width="112.6" height="112.6" fill="#ffffff"/><rect x="112.6" y="337.8" width="56.3" height="56.3" fill="#aed1f3"/><polygon points="112.6,337.8 168.89999999999998,337.8 112.6,394.1" fill="#d9ecfb"/><rect x="168.9" y="337.8" width="56.3" height="56.3" fill="#ddf2fa"/><polygon points="168.9,337.8 225.2,394.1 168.9,394.1" fill="#f4f7fd"/><rect x="112.6" y="394.1" width="56.3" height="56.3" fill="#ebf4fc"/><polygon points="112.6,394.1 168.89999999999998,394.1 168.89999999999998,450.40000000000003" fill="#c1dcf6"/><rect x="168.9" y="394.1" width="56.3" height="56.3" fill="#dbebfa"/><polygon points="168.9,394.1 225.2,394.1 225.2,450.40000000000003" fill="#c6e9f7"/><rect x="225.2" y="337.79999999999995" width="112.6" height="112.6" fill="#ffffff"/><rect x="225.2" y="337.8" width="56.3" height="56.3" fill="#d1e5f8"/><polygon points="225.2,337.8 281.5,337.8 225.2,394.1" fill="#dbedfb"/><rect x="281.5" y="337.8" width="56.3" height="56.3" fill="#f6fafe"/><polygon points="281.5,337.8 337.8,337.8 337.8,394.1" fill="#acd4f6"/><rect x="225.2" y="394.1" width="56.3" height="56.3" fill="#d1e0f8"/><polygon points="281.5,394.1 281.5,450.40000000000003 225.2,450.40000000000003" fill="#c1d5f6"/><rect x="281.5" y="394.1" width="56.3" height="56.3" fill="#d3eef9"/><polygon points="281.5,394.1 337.8,394.1 281.5,450.40000000000003" fill="#eef3fb"/><rect x="337.8" y="337.8" width="112.6" height="112.6" fill="#feffff"/><polygon points="337.8,337.8 450.4,450.4 337.8,450.4" fill="#c3d6f6"/><rect x="450.4" y="337.79999999999995" width="112.6" height="112.6" fill="#ffffff"/><rect x="450.4" y="337.8" width="56.3" height="56.3" fill="#c0d4f6"/><polygon points="450.4,337.8 506.7,394.1 450.4,394.1" fill="#e6f1fb"/><rect x="506.7" y="337.8" width="56.3" height="56.3" fill="#f3f7fd"/><polygon points="506.7,337.8 563,337.8 506.7,394.1" fill="#cee4f8"/><rect x="450.4" y="394.1" width="56.3" height="56.3" fill="#b4e2f5"/><polygon points="450.4,394.1 506.7,450.40000000000003 450.4,450.40000000000003" fill="#f4f7fd"/><rect x="506.7" y="394.1" width="56.3" height="56.3" fill="#d0e7fa"/><polygon points="563,394.1 563,450.40000000000003 506.7,450.40000000000003" fill="#c3d6f6"/><rect x="563" y="337.8" width="112.6" height="112.6" fill="#cee6fa"/><polygon points="563,337.8 675.6,337.8 675.6,450.4" fill="#def2fb"/><rect x="675.5999999999999" y="337.79999999999995" width="112.6" height="112.6" fill="#ffffff"/><rect x="675.6" y="337.8" width="56.3" height="56.3" fill="#c2e7f7"/><polygon points="675.6,337.8 731.9,394.1 675.6,394.1" fill="#ddeefb"/><rect x="731.9" y="337.8" width="56.3" height="56.3" fill="#a2daf2"/><polygon points="731.9,337.8 788.1999999999999,337.8 731.9,394.1" fill="#c3e1f9"/><rect x="675.6" y="394.1" width="56.3" height="56.3" fill="#d0edf9"/><polygon points="731.9,394.1 731.9,450.40000000000003 675.6,450.40000000000003" fill="#ddf1fa"/><rect x="731.9" y="394.1" width="56.3" height="56.3" fill="#dbf1fa"/><polygon points="731.9,394.1 788.1999999999999,450.40000000000003 731.9,450.40000000000003" fill="#d9f0fa"/><rect x="788.1999999999999" y="337.79999999999995" width="112.6" height="112.6" fill="#ffffff"/><rect x="788.2" y="337.8" width="56.3" height="56.3" fill="#c8e0f7"/><polygon points="844.5,337.8 844.5,394.1 788.2,394.1" fill="#a6cdf2"/><rect x="844.5" y="337.8" width="56.3" height="56.3" fill="#dbe6f7"/><polygon points="900.8,337.8 900.8,394.1 844.5,394.1" fill="#adc7f3"/><rect x="788.2" y="394.1" width="56.3" height="56.3" fill="#fafdfe"/><polygon points="844.5,394.1 844.5,450.40000000000003 788.2,450.40000000000003" fill="#eff4fb"/><rect x="844.5" y="394.1" width="56.3" height="56.3" fill="#b5d5f4"/><polygon points="844.5,394.1 900.8,394.1 844.5,450.40000000000003" fill="#f6fafe"/><rect x="900.8" y="337.8" width="112.6" height="112.6" fill="#c6d8f7"/><polygon points="1013.4,337.8 1013.4,450.4 900.8,450.4" fill="#f4fbfd"/><rect x="1013.4" y="337.8" width="112.6" height="112.6" fill="#e5f2fc"/><polygon points="1126,337.8 1126,450.4 1013.4,450.4" fill="#fafdfe"/></g></svg>